<svg width="22" height="23" viewBox="0 0 22 23" fill="none" xmlns="http://www.w3.org/2000/svg">
<path fill-rule="evenodd" clip-rule="evenodd" d="M16.4072 23H5.64865C4.15027 23 2.71373 22.41 1.65416 21.3586C0.594594 20.3071 0 18.8816 0 17.3948C0 14.7621 0 11.6373 0 9.72565C0 8.3332 0.654054 7.02098 1.76832 6.17489C3.69243 4.71517 7.11135 2.12025 9.03784 0.659351C10.1961 -0.219784 11.8039 -0.219784 12.9622 0.659351C14.891 2.12261 18.3159 4.72107 20.2388 6.18079C21.3483 7.02334 22 8.33084 22 9.71739C22 11.642 22 14.8022 22 17.4502C22 18.9218 21.4114 20.3343 20.3625 21.3751C19.3136 22.4159 17.8902 23 16.4072 23V23ZM14.8649 21.2299H16.4072C17.4181 21.2299 18.3861 20.8323 19.1008 20.123C19.8155 19.4138 20.2162 18.4533 20.2162 17.4502C20.2162 14.8022 20.2162 11.642 20.2162 9.71739C20.2162 8.88192 19.8238 8.09365 19.1555 7.58623C17.2325 6.12769 13.8077 3.52805 11.8788 2.06479C11.3603 1.67183 10.6397 1.67183 10.1212 2.06479C8.1947 3.52687 4.77578 6.12179 2.85168 7.58151C2.17859 8.09247 1.78378 8.88546 1.78378 9.72565C1.78378 11.6373 1.78378 14.7621 1.78378 17.3948C1.78378 18.412 2.19049 19.3879 2.91589 20.1065C3.64011 20.8264 4.62357 21.2299 5.64865 21.2299H7.13514V16.8048C7.13514 15.6636 8.06746 14.7397 9.21622 14.7397C10.252 14.7397 11.748 14.7397 12.7838 14.7397C13.9325 14.7397 14.8649 15.6636 14.8649 16.8048V21.2299V21.2299ZM13.0811 21.2299V16.8048C13.0811 16.6419 12.9479 16.5097 12.7838 16.5097C11.748 16.5097 10.252 16.5097 9.21622 16.5097C9.05211 16.5097 8.91892 16.6419 8.91892 16.8048V21.2299H13.0811Z" fill="#4B4B4B"/>
</svg>
