<svg width="24" height="24" viewBox="0 0 24 24" fill="none" xmlns="http://www.w3.org/2000/svg">
<path d="M18.5454 24H5.45448C4.73818 24 4.0289 23.8589 3.36712 23.5848C2.70534 23.3107 2.10404 22.9089 1.59754 22.4024C1.09104 21.8959 0.689258 21.2946 0.415142 20.6328C0.141025 19.971 -6.10352e-05 19.2618 -6.10352e-05 18.5455V5.45455C-6.10352e-05 4.00791 0.574613 2.62053 1.59754 1.5976C2.62046 0.574674 4.00785 0 5.45448 0H18.5454C19.2617 0 19.971 0.141086 20.6328 0.415203C21.2945 0.689319 21.8958 1.0911 22.4023 1.5976C22.9088 2.1041 23.3106 2.70541 23.5847 3.36718C23.8589 4.02896 23.9999 4.73824 23.9999 5.45455V18.5455C23.9999 19.2618 23.8589 19.971 23.5847 20.6328C23.3106 21.2946 22.9088 21.8959 22.4023 22.4024C21.8958 22.9089 21.2945 23.3107 20.6328 23.5848C19.971 23.8589 19.2617 24 18.5454 24ZM5.45448 2.18182C4.5865 2.18182 3.75407 2.52662 3.14032 3.14038C2.52656 3.75413 2.18176 4.58656 2.18176 5.45455V18.5455C2.18176 19.4134 2.52656 20.2459 3.14032 20.8596C3.75407 21.4734 4.5865 21.8182 5.45448 21.8182H18.5454C19.4134 21.8182 20.2458 21.4734 20.8596 20.8596C21.4733 20.2459 21.8181 19.4134 21.8181 18.5455V5.45455C21.8181 4.58656 21.4733 3.75413 20.8596 3.14038C20.2458 2.52662 19.4134 2.18182 18.5454 2.18182H5.45448Z" fill="#4B4B4B"/>
<path d="M11.9086 18.0455C11.7908 18.0455 11.6679 17.9948 11.5701 17.8881L11.2015 18.2259L11.5701 17.8881C11.471 17.7799 11.4086 17.6246 11.4086 17.4545V13.0909C11.4086 12.9208 11.471 12.7655 11.5701 12.6574C11.6679 12.5507 11.7908 12.5 11.9086 12.5C12.0265 12.5 12.1494 12.5507 12.2472 12.6574C12.3463 12.7655 12.4086 12.9208 12.4086 13.0909V17.4545C12.4086 17.6246 12.3463 17.7799 12.2472 17.8881C12.1494 17.9948 12.0265 18.0455 11.9086 18.0455Z" fill="#4B4B4B" stroke="#4B4B4B"/>
<path d="M6.45355 18.0454C6.33568 18.0454 6.21282 17.9948 6.11502 17.8881C6.01589 17.7799 5.95355 17.6246 5.95355 17.4545V8.72726C5.95355 8.55718 6.01589 8.40188 6.11502 8.29373C6.21282 8.18704 6.33568 8.13635 6.45355 8.13635C6.57143 8.13635 6.69428 8.18704 6.79208 8.29373C6.89122 8.40188 6.95355 8.55718 6.95355 8.72726V17.4545C6.95355 17.6246 6.89122 17.7799 6.79208 17.8881C6.69428 17.9948 6.57143 18.0454 6.45355 18.0454Z" fill="#4B4B4B" stroke="#4B4B4B"/>
<path d="M17.3637 18.0455C17.2458 18.0455 17.123 17.9948 17.0252 17.8881L16.6566 18.226L17.0252 17.8881C16.926 17.78 16.8637 17.6247 16.8637 17.4546V6.5455C16.8637 6.37542 16.926 6.22012 17.0252 6.11197C17.123 6.00528 17.2458 5.95459 17.3637 5.95459C17.4816 5.95459 17.6044 6.00528 17.7022 6.11197C17.8014 6.22012 17.8637 6.37542 17.8637 6.5455V17.4546C17.8637 17.6247 17.8014 17.78 17.7022 17.8881L18.0708 18.226L17.7022 17.8881C17.6044 17.9948 17.4816 18.0455 17.3637 18.0455Z" fill="#4B4B4B" stroke="#4B4B4B"/>
</svg>
