<svg width="21" height="24" viewBox="0 0 21 24" fill="none" xmlns="http://www.w3.org/2000/svg">
<path d="M13.6287 10.5705C12.7034 11.1761 11.6144 11.5 10.4996 11.5C9.0045 11.5 7.57263 10.9181 6.51849 9.88546C5.46471 8.85318 4.87463 7.45533 4.87463 6C4.87463 4.91453 5.20317 3.85256 5.81994 2.94833C6.4368 2.04397 7.31467 1.33757 8.34369 0.920038C9.3728 0.502466 10.5058 0.393057 11.5989 0.606061C12.692 0.819056 13.6947 1.34455 14.4808 2.11454C15.2667 2.88442 15.8007 3.86405 16.0169 4.92896C16.2332 5.9938 16.1223 7.09765 15.6979 8.10137C15.2734 9.10521 14.5539 9.96488 13.6287 10.5705ZM13.2041 2.01821C12.4027 1.49366 11.4615 1.21429 10.4996 1.21429C9.20999 1.21429 7.97115 1.71604 7.05615 2.61237C6.14081 3.50903 5.62463 4.72739 5.62463 6C5.62463 6.94885 5.91191 7.87552 6.44889 8.66276C6.98579 9.44989 7.7478 10.0618 8.6374 10.4228C9.52691 10.7837 10.5051 10.878 11.4488 10.6941C12.3925 10.5103 13.2607 10.0561 13.9431 9.38764C14.6256 8.71904 15.0917 7.86592 15.2806 6.9356C15.4695 6.00521 15.3724 5.04095 15.0021 4.1652C14.6319 3.28957 14.0056 2.54283 13.2041 2.01821Z" fill="#4B4B4B" stroke="#4B4B4B"/>
<path d="M1.30566 22.2291L1.24213 22.7858H1.80244H19.1974H19.7578L19.6942 22.2291C19.4648 20.2189 18.4875 18.3641 16.9522 17.0183C15.4171 15.6726 13.4316 14.9296 11.3752 14.9286H11.3749H9.62494H9.62471C7.56831 14.9296 5.58276 15.6726 4.04769 17.0183C2.51236 18.3641 1.5351 20.2189 1.30566 22.2291ZM9.62494 14.2144H11.3749C13.7983 14.2144 16.1204 15.1575 17.831 16.8331C19.5411 18.5084 20.4999 20.7783 20.4999 23.1429C20.4999 23.2343 20.463 23.324 20.3938 23.3918C20.3242 23.46 20.2277 23.5001 20.1249 23.5001H0.874939C0.772194 23.5001 0.675682 23.46 0.606111 23.3918C0.536889 23.324 0.499939 23.2343 0.499939 23.1429C0.499939 20.7783 1.45876 18.5084 3.16893 16.8331C4.87944 15.1575 7.20155 14.2144 9.62494 14.2144Z" fill="#4B4B4B" stroke="#4B4B4B"/>
</svg>
